/* XPM */
static const char *player[] = {
/* columns rows colors chars-per-pixel */
"48 48 164 2 ",
"   c #150F0C",
".  c #03100B",
"X  c #0B1209",
"o  c #1D1D0F",
"O  c #15110D",
"+  c #1E1912",
"@  c #151211",
"#  c #221209",
"$  c #2C1B0C",
"%  c #341D01",
"&  c #231D13",
"*  c #2B1C11",
"=  c #182D16",
"-  c #1A2F18",
";  c #152312",
":  c #1A3F1D",
">  c #2D230C",
",  c #36230C",
"<  c #3A250C",
"1  c #3F2402",
"2  c #2F2316",
"3  c #2B2B13",
"4  c #2E2318",
"5  c #272C14",
"6  c #352515",
"7  c #3A2713",
"8  c #342C15",
"9  c #3B2915",
"0  c #35251B",
"q  c #372819",
"w  c #3D2D1C",
"e  c #22371A",
"r  c #243B1B",
"t  c #2C3318",
"y  c #35341A",
"u  c #323C1D",
"i  c #3A361E",
"p  c #373222",
"a  c #3D382B",
"s  c #422604",
"d  c #442905",
"f  c #4C2B02",
"g  c #422C0B",
"h  c #4C2F0B",
"j  c #542F01",
"k  c #4D300D",
"l  c #543103",
"z  c #5A3301",
"x  c #422B14",
"c  c #482E11",
"v  c #422D1B",
"b  c #4D2E1B",
"n  c #4A3017",
"m  c #44311E",
"M  c #4D341D",
"N  c #54351C",
"B  c #563A1C",
"V  c #5B3B1D",
"C  c #613601",
"Z  c #653801",
"A  c #603617",
"S  c #433221",
"D  c #43372C",
"F  c #5B3E24",
"G  c #593E2A",
"H  c #28481D",
"J  c #2A481D",
"K  c #3C451F",
"L  c #2C4722",
"P  c #294820",
"I  c #3F4220",
"U  c #394A22",
"Y  c #3B4629",
"T  c #2F5621",
"R  c #335424",
"E  c #3F5122",
"W  c #345826",
"Q  c #375428",
"!  c #335A29",
"~  c #3D642A",
"^  c #6B401F",
"/  c #75411B",
"(  c #424922",
")  c #404523",
"_  c #5E4124",
"`  c #5C472D",
"'  c #4D4034",
"]  c #5A4A3A",
"[  c #634124",
"{  c #694E26",
"}  c #654628",
"|  c #624F2C",
" . c #6D4C2D",
".. c #744922",
"X. c #724D2B",
"o. c #7D5129",
"O. c #6C5138",
"+. c #7A5430",
"@. c #735337",
"#. c #42672C",
"$. c #426A2F",
"%. c #4A6B2E",
"&. c #497030",
"*. c #537C34",
"=. c #4F4A45",
"-. c #735842",
";. c #6F7345",
":. c #666561",
">. c #874E22",
",. c #814F29",
"<. c #81552A",
"1. c #985228",
"2. c #9A5426",
"3. c #805A34",
"4. c #A05626",
"5. c #A05B27",
"6. c #AC5E2A",
"7. c #976737",
"8. c #CF7531",
"9. c #C57C3E",
"0. c #D07631",
"q. c #D57833",
"w. c #DA7C36",
"e. c #805F43",
"r. c #946846",
"t. c #926A4B",
"y. c #846C55",
"u. c #8D715B",
"i. c #9F7557",
"p. c #94735A",
"a. c #A57644",
"s. c #A17353",
"d. c #8D7968",
"f. c #9E7E65",
"g. c #689541",
"h. c #739B44",
"j. c #EF8538",
"k. c #99806C",
"l. c #83817D",
"z. c #958171",
"x. c #A1826C",
"c. c #AF8C71",
"v. c #B58E73",
"b. c #BA9478",
"n. c #CE8B59",
"m. c #C98E6B",
"M. c #C7946E",
"N. c #CF956D",
"B. c #D3996F",
"V. c #C59978",
"C. c #E19E6E",
"Z. c #F2A56E",
"A. c #94938C",
"S. c #BC9E86",
"D. c #DFA982",
"F. c #D5AE8F",
"G. c #DBAA88",
"H. c #D8B397",
"J. c #EABB98",
"K. c #F3CDAF",
"L. c #FFD1AD",
"P. c #F7D1B3",
"I. c #F9D2B0",
"U. c #FFE4C4",
/* pixels */
"z z z z z z z z z z z z z z z z z z z z z z z z z z z z z z z z z z z z z z z z z z z z z z z z ",
"z z z z z z z z z z z z z z z z z z z z z z z z z z z z z z z z z z z z z z z z z z z z z z z z ",
"z z z z z z z z z z z z z z z z z z z z z z z z z z z z z z z z z z z z z z z z z z z z z z z z ",
"z z z z z z z z z z z z z z z z z z z z z z z z z z z z z z z z z z z z z z z z z z z z z z z z ",
"z z z z z z z z z z z z z z z z z z z z z z z z z z z z z z z z z z z z z z z z z z z z z z z z ",
"z z z z z z z z z z z z z z z z z z z z z z z z z z z z z z z z z z z z z z z z z z z z z z z z ",
"z z z z z z z z z z z z z z z z z z z z z z z z z z z z z z z z z z z z z z z z z z z z z z z z ",
"z z z z z z z z z z z z z z z z z z z z z z z z z z z z z z z z z z z z z z z z z z z z z z z z ",
"z z z z z z z z z z z z z z z z z z z z z z z z z z z z z z z z z z z z z z z z z z z z z z z z ",
"z z z z z z z z z z z z z z z z z z z z z z z z z z z z z z z z z z z z z z z z z z z z z z z z ",
"z z z z z z z z z z j j j j z z z z z z z z z z z z z z z z z z z z z z z z z z z z z z z z z z ",
"z z z z z z z z z < 7 9 9 q g z z z z z z z z z z z z z z z z z z z z z z z z z z z z z z z z z ",
"z z z z z z z l 9 +.7.a.a.a.@.k z z z z z z z z z z z z z z z z z z z z z z z z z z z z z z z z ",
"z z z z z z z 6 X.7.X. . .} } 0 d Z z z z z z z z z z z z z z z z z z z z z z z z z z z z z z z ",
"z z z z z z l q X.M v [ F [ _ _ c < k z z z z z z z z z z z z z z z z z z z z z z z z z z z z z ",
"z z z z g > 7 q N }  .o.<.o...o.F w & z z z z z z z z z z z z z z z z z z z z z z z z z z z z z ",
"z z z z f 2 4 v M v   0 S @ r.,.O , h z z z z z z z z z z z z z z z z z z z z z z z z z z z z z ",
"z z z z z z , 6 7 $ G u.y.J.p.t.< C z z z z z z z z z z z z z z z z z z z z z z z z z z z z z z ",
"z z z z g 8 3 x G s.F.S.z.U.d.u.s z z z z z z z z z z z z z z z z z z z z z z z z z z z z z z z ",
"z z z g Q P e N G V.I.K.P.P.L.b.% C z z z z z z z z z z z z z z z z z z z z z z z z z z z z z z ",
"z z z > ! R J B q   x.J.c.d.H.-.f z z z z z z z z z z z z z z z z z z z z z z z z z z z z z z z ",
"z z z d 5 e e & b * N @.l.:.w f z z z z z z z z z z z z z z z z z z z z z z z z z z z z z z z z ",
"z z z z t L . _ j.V i 2./ M B z z z z z z z z z z z z z z z z z z z z z z z z z z z z z z z z z ",
"z z z 5 W ~ q >.w.{ P 2.0.V i g C z z z z z z z z z z z z z z z z z z z z z z z z z z z z z z z ",
"z z f e *.T e.i.# U r 6.w.^ y ; s z z z z z z z z z z z z z z z z z z z z z z z z z z z z z z z ",
"z z f r &.H y.D.' Y ..q.0.[ f.a ] k z z z z z z z z z z z z z z z z z z z z z z z z z z z z z z ",
"z z f r ~ H p B.N.0 4.6.5.v x.v.G.w j z z z z z z z z z z z z z z z z z z z z z z z z z z z z z ",
"z z z g - = X & u u ) I t s c m 9 l z z z z z z z z z z z z z z z z z z z z z z z z z z z z z z ",
"z z z z s 1 d X $.h.h.g.R s C l z z z z z z z z z z z z z z z z z z z z z z z z z z z z z z z z ",
"z z z z z Z l M K %.#.E ( s C z z z z z z z z z z z z z z z z z z z z z z z z z z z z z z z z z ",
"z z z z z f o 9.1.: ;.m.M.` l z z z z z z z z z z z z z z z z z z z z z z z z z z z z z z z z z ",
"z z z z x + A.n.A > | C.Z.m f z z z z z z z z z z z z z z z z z z z z z z z z z z z z z z z z z ",
"z z z j q  .=.m s Z % k.H.D s z z z z z z z z z z z z z z z z z z z z z z z z z z z z z z z z z ",
"z z z z q G n f C z z S O.3._ $ z z z z z z z z z z z z z z z z z z z z z z z z z z z z z z z z ",
"z z z z l 6 0 l z z z s * 9 w k z z z z z z z z z z z z z z z z z z z z z z z z z z z z z z z z ",
"z z z z z l j z z z z z l l l z z z z z z z z z z z z z z z z z z z z z z z z z z z z z z z z z ",
"z z z z z z z z z z z z z z z z z z z z z z z z z z z z z z z z z z z z z z z z z z z z z z z z ",
"z z z z z z z z z z z z z z z z z z z z z z z z z z z z z z z z z z z z z z z z z z z z z z z z ",
"z z z z z z z z z z z z z z z z z z z z z z z z z z z z z z z z z z z z z z z z z z z z z z z z ",
"z z z z z z z z z z z z z z z z z z z z z z z z z z z z z z z z z z z z z z z z z z z z z z z z ",
"z z z z z z z z z z z z z z z z z z z z z z z z z z z z z z z z z z z z z z z z z z z z z z z z ",
"z z z z z z z z z z z z z z z z z z z z z z z z z z z z z z z z z z z z z z z z z z z z z z z z ",
"z z z z z z z z z z z z z z z z z z z z z z z z z z z z z z z z z z z z z z z z z z z z z z z z ",
"z z z z z z z z z z z z z z z z z z z z z z z z z z z z z z z z z z z z z z z z z z z z z z z z ",
"z z z z z z z z z z z z z z z z z z z z z z z z z z z z z z z z z z z z z z z z z z z z z z z z ",
"z z z z z z z z z z z z z z z z z z z z z z z z z z z z z z z z z z z z z z z z z z z z z z z z ",
"z z z z z z z z z z z z z z z z z z z z z z z z z z z z z z z z z z z z z z z z z z z z z z z z ",
"z z z z z z z z z z z z z z z z z z z z z z z z z z z z z z z z z z z z z z z z z z z z z z z z "
};
