/* XPM */
static const char *coin[] = {
/* columns rows colors chars-per-pixel */
"48 48 125 2 ",
"   c #162512",
".  c #192011",
"X  c #1C2110",
"o  c #1D2210",
"O  c #1C2112",
"+  c #1D2112",
"@  c #1C2714",
"#  c #1E2714",
"$  c #1E2815",
"%  c #1A391A",
"&  c #332005",
"*  c #332006",
"=  c #342106",
"-  c #372307",
";  c #392505",
":  c #34260D",
">  c #35280E",
",  c #2C2610",
"<  c #222B16",
"1  c #2F2A11",
"2  c #282F15",
"3  c #332F11",
"4  c #223B19",
"5  c #203F19",
"6  c #2E3A1B",
"7  c #3F3E17",
"8  c #303719",
"9  c #482706",
"0  c #4D2903",
"q  c #4E2902",
"w  c #4F2E03",
"e  c #4B2C05",
"r  c #4A2C06",
"t  c #4B2E08",
"y  c #502B01",
"u  c #522D04",
"i  c #502E04",
"p  c #512F06",
"a  c #4C310A",
"s  c #573102",
"d  c #573103",
"f  c #533307",
"g  c #553005",
"h  c #573104",
"j  c #563105",
"k  c #573105",
"l  c #573204",
"z  c #593301",
"x  c #5B3300",
"c  c #5A3301",
"v  c #5B3301",
"b  c #593002",
"n  c #583103",
"m  c #593302",
"M  c #5B3302",
"N  c #5C3300",
"B  c #5F3300",
"V  c #5B3400",
"C  c #5A3401",
"Z  c #5B3401",
"A  c #5C3400",
"S  c #5D3400",
"D  c #5D3500",
"F  c #5C3401",
"G  c #5D3401",
"H  c #5C3501",
"J  c #5D3501",
"K  c #5F3500",
"L  c #5E3501",
"P  c #583204",
"I  c #583205",
"U  c #55320A",
"Y  c #613500",
"T  c #603600",
"R  c #603502",
"E  c #603602",
"W  c #26421E",
"Q  c #25461C",
"!  c #2F411E",
"~  c #2D431F",
"^  c #2B441F",
"/  c #27481C",
"(  c #2A4C1E",
")  c #2A4D1F",
"_  c #2B4020",
"`  c #2B4325",
"'  c #294922",
"]  c #2D4B22",
"[  c #364A26",
"{  c #2F5023",
"}  c #2F5024",
"|  c #335425",
" . c #3D5126",
".. c #325825",
"X. c #3D6127",
"o. c #3D6328",
"O. c #3E6428",
"+. c #495425",
"@. c #436B2C",
"#. c #436D2F",
"$. c #456C2C",
"%. c #486E2D",
"&. c #456F31",
"*. c #4E7631",
"=. c #4F7631",
"-. c #4F7732",
";. c #507731",
":. c #507732",
">. c #547B33",
",. c #577F35",
"<. c #587D36",
"1. c #558037",
"2. c #588037",
"3. c #5C8438",
"4. c #5C8538",
"5. c #5E8639",
"6. c #628C3B",
"7. c #638D3B",
"8. c #658F3B",
"9. c #668A3E",
"0. c #658F3C",
"q. c #658E3D",
"w. c #69913E",
"e. c #6A943F",
"r. c #6D9741",
/* pixels */
"c c c c c c c c c c c c c c c c c c c c c c c c c c c c c c c c c c c c c c c c c c c c c c c c ",
"c c c c c c c c c c c c c c c c c c c c c c c c c c c c c c c c c c c c c c c c c c c c c c c c ",
"c c c c c c c c c c c c c c c c c c c c c c c c c c c c c c c c c c c c c c c c c c c c c c c c ",
"c c c c c c c c c c c c c c c c c c c c c c c c c c c c c c c c c c c c c c c c c c c c c c c c ",
"c c c c c c c c c c c c c c c c c c c c c c c c c c c c c c c c c c c c c c c c c c c c c c c c ",
"c c c c c c c c c c c c c c c c c c c c c c c c c c c c c c c c c c c c c c c c c c c c c c c c ",
"c c c c c c c c c c c c c c c c c c c c c c c c c c c c c c c c c c c c c c c c c c c c c c c c ",
"c c c c c c c c c c c c c c c c c c c c c c c c c c c c c c c c c c c c c c c c c c c c c c c c ",
"c c c c c c c c c c c c c c c c c c c c c c c c c c c c c c c c c c c c c c c c c c c c c c c c ",
"c c c c c c c c c c c c c c c c c c c c c c c c c c c c c c c c c c c c c c c c c c c c c c c c ",
"c c c c c c c c c c c c c c c c c c c c c c c c c c c c c c c c c c c c c c c c c c c c c c c c ",
"c c c c c c c c c c c c c c c c c c c c c c c c c c c c c c c c c c c c c c c c c c c c c c c c ",
"c c c c c c c c c c c c c c c c c c c c c c c c c c c c c c c c c c c c c c c c c c c c c c c c ",
"c c c c c c c c c c c c c c c c c c c c c c c c c c c c c c c c c c c c c c c c c c c c c c c c ",
"c c c c c c c c c c c c c c c c c c c c c c c c c c c c c c c c c c c c c c c c c c c c c c c c ",
"c c c c c c c c c c c c c c c c c c c c c c c c c c c c c c c c c c c c c c c c c c c c c c c c ",
"c c c c c c c c c c c c c c c c c c c c c c c c c c c c c c c c c c c c c c c c c c c c c c c c ",
"c c c c c c c c c c c c c c c c c c c c c c c c c c c c c c c c c c c c c c c c c c c c c c c c ",
"c c c c c c c c c c c c c c c c c c c c c c c c c c c c c c c c c c c c c c c c c c c c c c c c ",
"c c c c c c c c c c c c c c c c c c c c c c c c c c c c c c c c c c c c c c c c c c c c c c c c ",
"c c c c c c c c c c c c c c c c c c c c c c c c c c c c c c c c c c c c c c c c c c c c c c c c ",
"c c c c c c c c c c c c c c c c c c c c c J J C J c c c c c c c c c c c c c c c c c c c c c c c ",
"c c c c c c c c c c c c c c c c c c c c J q u c q l c c c c c c c c c c c c c c c c c c c c c c ",
"c c c c c c c c c c c c c c c c c c c N a [ 6 7 ` : J c c c c c c c c c c c c c c c c c c c c c ",
"c c c c c c c c c c c c c c c c c c c J e  .1.#.+.i C c c c c c c c c c c c c c c c c c c c c c ",
"c c c c c c c c c c c c c c c c c c c c E 9 _ ^ U N c c c c c c c c c c c c c c c c c c c c c c ",
"c c c c c c c c c c c c c c c c c c c J f ,   4 3 u J c c c c c c c c c c c c c c c c c c c c c ",
"c c c c c c c c c c c c c c c c c c J u ~ ] ~ O.&.8 y J c c c c c c c c c c c c c c c c c c c c ",
"c c c c c c c c c c c c c c c c c c P 2 ..<.9.7.8.| = E c c c c c c c c c c c c c c c c c c c c ",
"c c c c c c c c c c c c c c c c c J = ' 2.7.e.0.w.X.@ l C c c c c c c c c c c c c c c c c c c c ",
"c c c c c c c c c c c c c c c c c E & { ,.4.0.4.;.@.$ l C c c c c c c c c c c c c c c c c c c c ",
"c c c c c c c c c c c c c c c c c E & } %.-.r.4.-.o.@ l C c c c c c c c c c c c c c c c c c c c ",
"c c c c c c c c c c c c c c c c c J ; % $.-.>.;.X.Q X P c c c c c c c c c c c c c c c c c c c c ",
"c c c c c c c c c c c c c c c c c c s 1 W ) ) / 5 < e J c c c c c c c c c c c c c c c c c c c c ",
"c c c c c c c c c c c c c c c c c c c E > . X X X t E c c c c c c c c c c c c c c c c c c c c c ",
"c c c c c c c c c c c c c c c c c c c c c l P s P c c c c c c c c c c c c c c c c c c c c c c c ",
"c c c c c c c c c c c c c c c c c c c c c C C C c c c c c c c c c c c c c c c c c c c c c c c c ",
"c c c c c c c c c c c c c c c c c c c c c c c c c c c c c c c c c c c c c c c c c c c c c c c c ",
"c c c c c c c c c c c c c c c c c c c c c c c c c c c c c c c c c c c c c c c c c c c c c c c c ",
"c c c c c c c c c c c c c c c c c c c c c c c c c c c c c c c c c c c c c c c c c c c c c c c c ",
"c c c c c c c c c c c c c c c c c c c c c c c c c c c c c c c c c c c c c c c c c c c c c c c c ",
"c c c c c c c c c c c c c c c c c c c c c c c c c c c c c c c c c c c c c c c c c c c c c c c c ",
"c c c c c c c c c c c c c c c c c c c c c c c c c c c c c c c c c c c c c c c c c c c c c c c c ",
"c c c c c c c c c c c c c c c c c c c c c c c c c c c c c c c c c c c c c c c c c c c c c c c c ",
"c c c c c c c c c c c c c c c c c c c c c c c c c c c c c c c c c c c c c c c c c c c c c c c c ",
"c c c c c c c c c c c c c c c c c c c c c c c c c c c c c c c c c c c c c c c c c c c c c c c c ",
"c c c c c c c c c c c c c c c c c c c c c c c c c c c c c c c c c c c c c c c c c c c c c c c c ",
"c c c c c c c c c c c c c c c c c c c c c c c c c c c c c c c c c c c c c c c c c c c c c c c c "
};
