/* XPM */
static const char *exit0[] = {
/* columns rows colors chars-per-pixel */
"48 48 106 2 ",
"   c #0E0D0B",
".  c #110E0C",
"X  c #15110D",
"o  c #1B140E",
"O  c #1C1614",
"+  c #271A07",
"@  c #20160E",
"#  c #25190E",
"$  c #2B1C0A",
"%  c #211710",
"&  c #261A12",
"*  c #2B1D13",
"=  c #2F200E",
"-  c #342006",
";  c #3D2404",
":  c #34220E",
">  c #3F280B",
",  c #2F2010",
"<  c #2C2119",
"1  c #342315",
"2  c #392714",
"3  c #3D2A15",
"4  c #382718",
"5  c #3D291A",
"6  c #412706",
"7  c #452904",
"8  c #4D2D03",
"9  c #442908",
"0  c #532F01",
"q  c #563102",
"w  c #5A3301",
"e  c #422D1C",
"r  c #45311C",
"t  c #4C351E",
"y  c #53371F",
"u  c #603600",
"i  c #4C3520",
"p  c #4E3923",
"a  c #503722",
"s  c #543B23",
"d  c #5B3E24",
"f  c #573F28",
"g  c #5E4126",
"h  c #5D4128",
"j  c #654526",
"k  c #624429",
"l  c #674829",
"z  c #6D4B2C",
"x  c #724F2D",
"c  c #73512F",
"v  c #7A552F",
"b  c #6C4E31",
"n  c #6A5136",
"m  c #725231",
"M  c #755130",
"N  c #765230",
"B  c #785531",
"V  c #795532",
"C  c #7C5631",
"Z  c #785635",
"A  c #785736",
"S  c #7C5734",
"D  c #7D5833",
"F  c #7F5A33",
"G  c #7D5835",
"H  c #7E5A36",
"J  c #7F5B37",
"K  c #805932",
"L  c #815B32",
"P  c #805A33",
"I  c #825B33",
"U  c #815B34",
"Y  c #825C35",
"T  c #835E35",
"R  c #835D36",
"E  c #845D34",
"W  c #855E35",
"Q  c #875E35",
"!  c #885F36",
"~  c #875F39",
"^  c #8A6236",
"/  c #866038",
"(  c #8B6238",
")  c #8B6338",
"_  c #8C6339",
"`  c #8E6439",
"'  c #8E673C",
"]  c #92673B",
"[  c #91693B",
"{  c #92693C",
"}  c #93693C",
"|  c #92693F",
" . c #946A3C",
".. c #9C6F3F",
"X. c #976D42",
"o. c #9B6F41",
"O. c #9A7043",
"+. c #9C7142",
"@. c #9E7342",
"#. c #9F7342",
"$. c #9E7343",
"%. c #9F7443",
"&. c #9E7346",
"*. c #A27645",
"=. c #A17748",
"-. c #AB7B48",
/* pixels */
"w w w w w w w w w w w w w w w w w w w w w w w w w w w w w w w w w w w w w w w w w w w w w w w w ",
"w w w w w w w w w w w w w w w w w w w w w w w w w w w w w w w w w w w w w w w w w w w w w w w w ",
"w w w w w w w w w w w w w w w w w w w w w w w w w w w w w w w w w w w w w w w w w w w w w w w w ",
"w w w w w w w w w w w w w w w w w w w w w w w w w w w w w w w w w w w w w w w w w w w w w w w w ",
"w w w w w w w w w w w w w w w w w w w w w w w w w w w w w w w w w w w w w w w w w w w w w w w w ",
"w w w w w w w w w w w w w w w w w w w w w w w w w w w w w w w w w w w w w w w w w w w w w w w w ",
"w w w w w w w w w w w w w w w w w w w w w w w w w w w w w w w w w w w w w w w w w w w w w w w w ",
"w w w w w w w w w w w w w w w w w w w w w w w w w w w w w w w w w w w w w w w w w w w w w w w w ",
"w w w w w w w w w w w w w w w w w w w w w w w w w w w w w w w w w w w w w w w w w w w w w w w w ",
"w w w w w w w w w w w w w w w w w w w w w w w w w w w w w w w w w w w w w w w w w w w w w w w w ",
"w w w w w w w w w w w w w w w w w w w w w w w w w w w w w w w w w w w w w w w w w w w w w w w w ",
"w w w w w w w w w w w w w w w w w w w w w w w w w w w w w w w w w w w w w w w w w w w w w w w w ",
"w w w w w w w w w w w w w w w w w w w w w w w w w w w w w w w w w w w w w w w w w w w w w w w w ",
"w w w w w w w w w w w w w w w w w w w w w w w w w w w w w w w w w w w w w w w w w w w w w w w w ",
"w w w w w w w w w w w w w w w w w w w w w w w w w w w w w w w w w w w w w w w w w w w w w w w w ",
"w w w w w w w w w w w w w w w w w w w w w w w w w w w w w w w w w u q 6 2 3 2 1 8 u w w w w w w ",
"w w w w w w w w w w w w w w w w w w w w w w w w w w w w w w w w q - 1 s X.=.} H * - 8 w w w w w ",
"w w w w w w w w w w w w w w w w w w w w w w w w w w w w w w w 8 * k z ] $.$.$.W z b 4 6 w w w w ",
"w w w w w w w w w w w w w w w w w w w w w w w w w w w w w w 9 2 i z j z g x g y R -.H , w w w w ",
"w w w w w w w w w w w w w w w w w w w w w w w w w w w w w u + k ! 5 % . . . o * 1 s  .e ; w w w ",
"w w w w w w w w w w w w w w w w w w w w w w w w w w w w w 8 t c V * .     .   X & 5 C k $ w w w ",
"w w w w w w w w w w w w w w w w w w w w w w w w w w w w u ; b ..e   . . . . .   . 1 d P e ; u w ",
"w w w w w w w w w w w w w w w w w w w w w w w w w w w w 0 3 U x & .       . .     o j _ i > w w ",
"w w w w w w w w w w w w w w w w w w w w w w w w w w w w 8 i ( e X   .             X & e O.p 8 w ",
"w w w w w w w w w w w w w w w w w w w w w w w w w w w w 7 r P &                     X g o.i 0 w ",
"w w w w w w w w w w w w w w w w w w w w w w w w w w w w + 5 j o                     . c ` 4 7 w ",
"w w w w w w w w w w w w w w w w w w w w w w w w w w w w $ Z x &                     . g P a = w ",
"w w w w w w w w w w w w w w w w w w w w w w w w w w w w $ A } &                     . 5 ' m : w ",
"w w w w w w w w w w w w w w w w w w w w w w w w w w w w $ s j &                     X l $.z : w ",
"w w w w w w w w w w w w w w w w w w w w w w w w w w w w + f x *   .                 o d D k : w ",
"w w w w w w w w w w w w w w w w w w w w w w w w w w w 8 & z P 1   .                 o 5 d / 5 7 ",
"w w w w w w w w w w w w w w w w w w w w w w w w w w u ; n %.W 1                     * l D P 5 ; ",
"w w w w w w w w w w w w w w w w w w w w w w w w w w w 6 f ^ ( i . % & @ @ % o % & . 4 l R ^ e ; ",
"w w w w w w w w w w w w w w w w w w w w w w w w w w w 7 O 5 i 5 t V &.H S ~ z M M h e * i f < ; ",
"w w w w w w w w w w w w w w w w w w w w w w w w w w w q 6 @ o # t W P [ *.$.} W V j r # o o 6 q ",
"w w w w w w w w w w w w w w w w w w w w w w w w w w w w w q q q 0 w w w w w w w q q 0 q q w w w ",
"w w w w w w w w w w w w w w w w w w w w w w w w w w w w w w w w w w w w w w w w w w w w w w w w ",
"w w w w w w w w w w w w w w w w w w w w w w w w w w w w w w w w w w w w w w w w w w w w w w w w ",
"w w w w w w w w w w w w w w w w w w w w w w w w w w w w w w w w w w w w w w w w w w w w w w w w ",
"w w w w w w w w w w w w w w w w w w w w w w w w w w w w w w w w w w w w w w w w w w w w w w w w ",
"w w w w w w w w w w w w w w w w w w w w w w w w w w w w w w w w w w w w w w w w w w w w w w w w ",
"w w w w w w w w w w w w w w w w w w w w w w w w w w w w w w w w w w w w w w w w w w w w w w w w ",
"w w w w w w w w w w w w w w w w w w w w w w w w w w w w w w w w w w w w w w w w w w w w w w w w ",
"w w w w w w w w w w w w w w w w w w w w w w w w w w w w w w w w w w w w w w w w w w w w w w w w ",
"w w w w w w w w w w w w w w w w w w w w w w w w w w w w w w w w w w w w w w w w w w w w w w w w ",
"w w w w w w w w w w w w w w w w w w w w w w w w w w w w w w w w w w w w w w w w w w w w w w w w ",
"w w w w w w w w w w w w w w w w w w w w w w w w w w w w w w w w w w w w w w w w w w w w w w w w ",
"w w w w w w w w w w w w w w w w w w w w w w w w w w w w w w w w w w w w w w w w w w w w w w w w "
};
